<?xml version="1.0" encoding="UTF-8"?>
<svg width="37px" height="19px" viewBox="0 0 37 19" version="1.1" xmlns="http://www.w3.org/2000/svg" xmlns:xlink="http://www.w3.org/1999/xlink">
    <!-- Generator: Sketch 46.2 (44496) - http://www.bohemiancoding.com/sketch -->
    <title>Fill 1</title>
    <desc>Created with Sketch.</desc>
    <defs>
        <linearGradient x1="50%" y1="0%" x2="50%" y2="100%" id="linearGradient-1">
            <stop stop-color="#FC6036" offset="0%"></stop>
            <stop stop-color="#FF2D55" offset="100%"></stop>
        </linearGradient>
    </defs>
    <g id="Page-1" stroke="none" stroke-width="1" fill="none" fill-rule="evenodd">
        <g id="Desktop" transform="translate(-64.000000, -1373.000000)" stroke="url(#linearGradient-1)" fill="url(#linearGradient-1)">
            <g id="About" transform="translate(0.000000, 800.000000)">
                <path d="M96.2837069,579.89664 C95.0819866,579.89664 94.10336,578.918843 94.10336,577.716293 C94.10336,576.514573 95.0811573,575.535946 96.2837069,575.535946 C97.4854272,575.535946 98.4640538,576.514573 98.4640538,577.716293 C98.4640538,578.918843 97.4854272,579.89664 96.2837069,579.89664 M87.1294015,589.050945 C85.9276812,589.050945 84.9490545,588.073148 84.9490545,586.870599 C84.9490545,585.668878 85.9268518,584.690252 87.1294015,584.690252 C88.3311217,584.690252 89.3097484,585.668878 89.3097484,586.870599 C89.3097484,588.073148 88.3311217,589.050945 87.1294015,589.050945 M77.8697692,579.89664 C76.6680489,579.89664 75.6902516,578.918843 75.6902516,577.716293 C75.6902516,576.514573 76.6680489,575.535946 77.8697692,575.535946 C79.0723188,575.535946 80.0501161,576.514573 80.0501161,577.716293 C80.0501161,578.918843 79.0723188,579.89664 77.8697692,579.89664 M68.7154637,589.050945 C67.5137434,589.050945 66.5359462,588.073148 66.5359462,586.870599 C66.5359462,585.668878 67.5137434,584.690252 68.7154637,584.690252 C69.9180134,584.690252 70.8958106,585.668878 70.8958106,586.870599 C70.8958106,588.073148 69.9180134,589.050945 68.7154637,589.050945 M96.2837069,574 C94.2343965,574 92.5674139,575.666983 92.5674139,577.716293 C92.5674139,578.463533 92.7896782,579.160182 93.1711767,579.743211 L89.1563196,583.758068 C88.572461,583.377399 87.8766409,583.154305 87.1294015,583.154305 C86.3547936,583.154305 85.6349225,583.393157 85.0394531,583.799536 L80.9831288,579.743211 C81.3637979,579.159353 81.5860623,578.463533 81.5860623,577.716293 C81.5860623,575.666983 79.9190797,574 77.8697692,574 C75.8212881,574 74.1534761,575.666983 74.1534761,577.716293 C74.1534761,578.463533 74.3765698,579.159353 74.757239,579.742382 L70.7423819,583.758068 C70.1585233,583.37657 69.4627032,583.154305 68.7154637,583.154305 C66.6669826,583.154305 65,584.821288 65,586.870599 C65,588.919909 66.6669826,590.586892 68.7154637,590.586892 C70.7647742,590.586892 72.4317568,588.919909 72.4317568,586.870599 C72.4317568,586.123359 72.2094924,585.427539 71.8288233,584.84368 L75.8436804,580.828823 C76.4267096,581.210322 77.1225297,581.432586 77.8697692,581.432586 C78.617838,581.432586 79.3136581,581.210322 79.8966874,580.828823 L83.975404,584.908369 C83.6196152,585.478129 83.4131084,586.150727 83.4131084,586.870599 C83.4131084,588.919909 85.080091,590.586892 87.1294015,590.586892 C89.1787119,590.586892 90.8456945,588.919909 90.8456945,586.870599 C90.8456945,586.123359 90.6234302,585.427539 90.2419317,584.84451 L94.2576181,580.829653 C94.8406474,581.210322 95.5364675,581.432586 96.2837069,581.432586 C98.3330174,581.432586 100,579.765604 100,577.716293 C100,575.666983 98.3330174,574 96.2837069,574" id="Fill-1"></path>
            </g>
        </g>
    </g>
</svg>