<?xml version="1.0" encoding="UTF-8"?>
<svg width="27px" height="27px" viewBox="0 0 27 27" version="1.1" xmlns="http://www.w3.org/2000/svg" xmlns:xlink="http://www.w3.org/1999/xlink">
    <!-- Generator: Sketch 46.2 (44496) - http://www.bohemiancoding.com/sketch -->
    <title>Page 1</title>
    <desc>Created with Sketch.</desc>
    <defs>
        <linearGradient x1="4.22562093%" y1="0%" x2="95.5873371%" y2="100%" id="linearGradient-1">
            <stop stop-color="#FC6036" offset="0%"></stop>
            <stop stop-color="#FF2D55" offset="100%"></stop>
        </linearGradient>
    </defs>
    <g id="Page-1" stroke="none" stroke-width="1" fill="none" fill-rule="evenodd">
        <g id="Desktop" transform="translate(-70.000000, -1194.000000)">
            <g id="About" transform="translate(0.000000, 800.000000)">
                <g id="Page-1" transform="translate(70.000000, 393.000000)">
                    <g id="Group-3" transform="translate(0.000000, 0.142857)"></g>
                    <path d="M5.62015306,23.216199 C5.73494898,22.9368622 5.75918367,22.6383929 5.70306122,22.4330357 C5.67117347,22.1498724 5.55765306,21.8871173 5.36887755,21.6702806 C1.64183673,17.4610969 1.83954082,11.0478316 5.81658163,7.07079082 C7.82678571,5.06058673 10.5040816,3.95344388 13.3548469,3.95344388 C16.2056122,3.95344388 18.8816327,5.06058673 20.8892857,7.07079082 C22.9020408,9.0809949 24.0117347,11.7582908 24.0117347,14.6065051 C24.0130102,17.4559949 22.9058673,20.1332908 20.8956633,22.1434949 C17.4619898,25.5784439 12.1405612,26.2608418 7.96071429,23.8042092 C7.74515306,23.6766582 7.50663265,23.6141582 7.26811224,23.6141582 C6.93903061,23.6141582 6.6125,23.7327806 6.35612245,23.9623724 L6.30127551,24.0057398 C5.7375,24.4419643 5.17882653,24.7315051 4.65714286,24.9202806 C5.08443878,24.3297194 5.39821429,23.7225765 5.62015306,23.216199 M22.8267857,5.13966837 C20.2961735,2.60778061 16.9339286,1.21364796 13.3586735,1.21364796 C9.78341837,1.21364796 6.42117347,2.60778061 3.89056122,5.13966837 C-0.849234694,9.87691327 -1.30331633,17.5567602 2.77704082,22.8118622 C2.43010204,23.4151786 1.91352041,24.088648 1.21071429,24.4343112 C0.48877551,24.7901786 0.0869897959,25.5618622 0.210714286,26.3552296 C0.334438776,27.1498724 0.949234694,27.7659439 1.74132653,27.8909439 C2.65459184,28.03125 4.94158163,28.1894133 7.38035714,26.5899235 C9.22602041,27.5133929 11.2821429,27.9993622 13.3522959,27.9993622 C16.9352041,27.9993622 20.3012755,26.6065051 22.8318878,24.0758929 C25.3625,21.5452806 26.7566327,18.1830357 26.7566327,14.6065051 C26.7566327,11.0350765 25.3612245,7.67283163 22.8267857,5.13966837" id="Fill-1" fill="url(#linearGradient-1)"></path>
                    <path d="M13.3585459,16.1404337 C14.2042092,16.1404337 14.8917092,15.4529337 14.8917092,14.6072704 C14.8917092,13.7616071 14.2042092,13.0741071 13.3585459,13.0741071 C12.5128827,13.0741071 11.8253827,13.7616071 11.8253827,14.6072704 C11.8253827,15.4529337 12.5128827,16.1404337 13.3585459,16.1404337" id="Fill-4" fill="url(#linearGradient-1)"></path>
                    <path d="M17.9748724,16.1404337 C18.8205357,16.1404337 19.5080357,15.4529337 19.5080357,14.6072704 C19.5080357,13.7616071 18.8205357,13.0741071 17.9748724,13.0741071 C17.1292092,13.0741071 16.4417092,13.7616071 16.4417092,14.6072704 C16.4417092,15.4529337 17.1292092,16.1404337 17.9748724,16.1404337" id="Fill-6" fill="url(#linearGradient-1)"></path>
                    <path d="M8.74170918,16.1404337 C9.58737245,16.1404337 10.2748724,15.4529337 10.2748724,14.6072704 C10.2748724,13.7616071 9.58737245,13.0741071 8.74170918,13.0741071 C7.89604592,13.0741071 7.20854592,13.7616071 7.20854592,14.6072704 C7.20854592,15.4529337 7.89604592,16.1404337 8.74170918,16.1404337" id="Fill-8" fill="url(#linearGradient-1)"></path>
                </g>
            </g>
        </g>
    </g>
</svg>