<?xml version="1.0" encoding="UTF-8"?>
<svg width="47px" height="50px" viewBox="0 0 47 50" version="1.1" xmlns="http://www.w3.org/2000/svg" xmlns:xlink="http://www.w3.org/1999/xlink">
    <!-- Generator: Sketch 46.2 (44496) - http://www.bohemiancoding.com/sketch -->
    <title>computer</title>
    <desc>Created with Sketch.</desc>
    <defs>
        <linearGradient x1="50%" y1="0%" x2="50%" y2="100%" id="linearGradient-1">
            <stop stop-color="#FC6036" offset="0%"></stop>
            <stop stop-color="#FF2D55" offset="100%"></stop>
        </linearGradient>
    </defs>
    <g id="Page-1" stroke="none" stroke-width="1" fill="none" fill-rule="evenodd">
        <g id="Desktop" transform="translate(-481.000000, -1633.000000)" fill-rule="nonzero" fill="url(#linearGradient-1)">
            <g id="About" transform="translate(0.000000, 800.000000)">
                <g id="solutions" transform="translate(22.000000, 806.000000)">
                    <g id="ic" transform="translate(433.000000, 0.000000)">
                        <g id="computer" transform="translate(26.000000, 27.000000)">
                            <g id="Capa_1">
                                <g id="Group">
                                    <path d="M17.1034615,31.9215385 L16.7476923,35.2816667 C16.7189744,35.5528205 16.8066667,35.8233333 16.9891026,36.0260256 C17.1714103,36.2287179 17.4312821,36.344359 17.7039744,36.344359 L27.8707692,36.344359 C28.1433333,36.344359 28.4032051,36.2285897 28.585641,36.0260256 C28.7679487,35.8233333 28.855641,35.5528205 28.8270513,35.2816667 L28.4712821,31.9215385 L41.135,31.9215385 C43.1060256,31.9215385 44.7094872,30.3180769 44.7094872,28.3470513 L44.7094872,3.57448718 C44.709359,1.60346154 43.1057692,0 41.1348718,0 L3.67051282,0 C1.69948718,0 0.096025641,1.60346154 0.096025641,3.57448718 L0.096025641,28.3470513 C0.096025641,30.3180769 1.69948718,31.9215385 3.67051282,31.9215385 L17.1034615,31.9215385 Z M26.8019231,34.4214103 L18.7725641,34.4214103 L19.0371795,31.9215385 L26.5371795,31.9215385 L26.8019231,34.4214103 Z M3.67051282,1.92307692 L41.1348718,1.92307692 C42.0455128,1.92307692 42.7862821,2.66384615 42.7862821,3.57448718 L42.7862821,25.3833333 L2.01910256,25.3833333 L2.01910256,3.57448718 C2.01910256,2.66384615 2.75987179,1.92307692 3.67051282,1.92307692 Z M2.01910256,28.3470513 L2.01910256,27.3064103 L42.7861538,27.3064103 L42.7861538,28.3470513 C42.7861538,29.2576923 42.0453846,29.9984615 41.1347436,29.9984615 L3.67051282,29.9984615 C2.75987179,29.9984615 2.01910256,29.2576923 2.01910256,28.3470513 Z" id="Shape"></path>
                                    <path d="M41.1083333,42.8046154 C41.2826923,42.5174359 41.2946154,42.1601282 41.1396154,41.8620513 L39.2405128,38.2083333 C39.075,37.89 38.7461538,37.6902564 38.3873077,37.6902564 L6.41807692,37.6902564 C6.05935897,37.6902564 5.73038462,37.89 5.56487179,38.2083333 L3.66576923,41.8620513 C3.51089744,42.1601282 3.52269231,42.5174359 3.69705128,42.8046154 C3.87141026,43.0917949 4.18307692,43.2670513 4.51897436,43.2670513 L40.2864103,43.2670513 C40.6223077,43.2671795 40.9339744,43.0917949 41.1083333,42.8046154 Z M6.1024359,41.3441026 L7.00192308,39.6134615 L37.8033333,39.6134615 L38.7029487,41.3441026 L6.1024359,41.3441026 Z" id="Shape"></path>
                                    <path d="M42.7862821,44.9976923 L41.2478205,44.9976923 C39.0211538,44.9976923 37.2094872,46.8092308 37.2094872,49.0360256 C37.2094872,49.5670513 37.64,49.9975641 38.1710256,49.9975641 L45.8629487,49.9975641 C46.3939744,49.9975641 46.8244872,49.5670513 46.8244872,49.0360256 C46.8246154,46.809359 45.0130769,44.9976923 42.7862821,44.9976923 Z M39.3641026,48.0744872 C39.7147436,47.3902564 40.4275641,46.9207692 41.2478205,46.9207692 L42.7862821,46.9207692 C43.6065385,46.9207692 44.319359,47.3902564 44.6701282,48.0744872 L39.3641026,48.0744872 Z" id="Shape"></path>
                                </g>
                            </g>
                        </g>
                    </g>
                </g>
            </g>
        </g>
    </g>
</svg>