<?xml version="1.0" encoding="UTF-8"?>
<svg width="171px" height="43px" viewBox="0 0 171 43" version="1.1" xmlns="http://www.w3.org/2000/svg" xmlns:xlink="http://www.w3.org/1999/xlink">
    <!-- Generator: Sketch 46.2 (44496) - http://www.bohemiancoding.com/sketch -->
    <title>Page 1</title>
    <desc>Created with Sketch.</desc>
    <defs>
        <polygon id="path-1" points="0.000307453416 0.0461180124 4.09968634 0.0461180124 4.09968634 5.16993168 0.000307453416 5.16993168 0.000307453416 0.0461180124"></polygon>
        <polygon id="path-3" points="-0.000204968944 0.0461180124 4.09918379 0.0461180124 4.09918379 5.16993168 -0.000204968944 5.16993168 -0.000204968944 0.0461180124"></polygon>
        <polygon id="path-5" points="5.17659317 7.17391304 0.850723602 7.17391304 0.850723602 0.650059006 5.17659317 0.650059006 5.17659317 7.17391304"></polygon>
    </defs>
    <g id="Page-1" stroke="none" stroke-width="1" fill="none" fill-rule="evenodd">
        <g id="Desktop" transform="translate(-71.000000, -30.000000)">
            <g id="Home">
                <g id="Page-1" transform="translate(71.000000, 30.000000)">
                    <path d="M76.5113199,8.73963665 C75.5295186,8.00687267 74.3017547,7.63587888 72.860823,7.63587888 C70.0906677,7.63587888 67.9046739,8.70069255 66.3489596,10.8057236 C65.9082764,10.0473385 65.3056677,9.37913975 64.5483075,8.81035093 C63.5070652,8.03146894 62.2485559,7.63587888 60.8076242,7.63587888 C59.2109161,7.63587888 57.9329348,7.97715217 56.9101398,8.64945031 C56.3218789,9.03786646 55.3411025,9.48982298 55.3411025,10.004295 L55.3411025,9.97252484 C55.3411025,9.38118944 55.0777174,8.86774224 54.6575311,8.4475559 C53.8140839,7.60615839 52.5484006,7.60820807 51.7346739,8.45472981 C51.3308851,8.8738913 51.2417236,9.38426398 51.2417236,9.97252484 L51.2417236,25.3165 C51.2417236,25.9088602 51.3083385,26.4161584 51.7162267,26.8219969 C52.5279037,27.6367484 53.8796739,27.6387981 54.7210714,26.8291708 C55.146382,26.4212826 55.3411025,25.9119348 55.3411025,25.3165 L55.3411025,14.7308789 C55.3411025,13.8177422 56.5084006,13.0685807 57.2237422,12.5028665 C57.9267857,11.9463758 58.8112267,11.6645435 59.9026863,11.6645435 C61.0617857,11.6645435 61.6131522,11.9637981 62.0579348,12.552059 C62.5344876,13.185413 62.5150155,14.2307547 62.5150155,15.6593882 L62.5150155,25.3165 C62.5150155,25.9088602 62.9710714,26.4151335 63.3789596,26.8230217 C64.1926863,27.6367484 65.8611335,27.6377733 66.7015062,26.8291708 C67.1268168,26.4212826 67.6392391,25.9119348 67.6392391,25.3165 L67.6392391,14.7308789 C67.6392391,13.8187671 68.6835559,13.0696056 69.3999224,12.5028665 C70.101941,11.9463758 70.9248913,11.6645435 72.0173758,11.6645435 C73.1764752,11.6645435 73.8200776,11.9637981 74.2638354,12.552059 C74.741413,13.185413 74.8131522,14.2307547 74.8131522,15.6593882 L74.8131522,25.3165 C74.8131522,25.9088602 75.1472516,26.4161584 75.5541149,26.8230217 C75.963028,27.2309099 76.5328416,27.4379286 77.1252019,27.4379286 C77.7134627,27.4379286 78.0393634,27.2329596 78.4575,26.8291708 C78.8828106,26.4223075 78.9125311,25.9129596 78.9125311,25.3165 L78.9125311,15.0157857 C78.9125311,13.8115932 78.9002329,12.6391708 78.4472516,11.5313137 C77.9850466,10.3998851 77.4767236,9.46010248 76.5113199,8.73963665" id="Fill-1" fill="#FFFFFF"></path>
                    <path d="M87.6354969,8.26708075 C86.8330435,7.24223602 85.4443789,7.51074534 84.612205,8.3736646 C84.209441,8.79282609 84.0372671,9.38416149 84.0372671,9.97242236 L84.0372671,25.3163975 C84.0372671,25.9087578 84.2114907,26.4160559 84.6193789,26.8229193 C85.0272671,27.2308075 85.5181677,27.4378261 86.110528,27.4378261 C86.6987888,27.4378261 87.1435714,27.2328571 87.5617081,26.8300932 C87.9870186,26.4211801 88.136646,25.9118323 88.136646,25.3163975 L88.136646,9.97242236 C88.136646,9.35751553 87.9818944,9.29192547 87.5740062,8.26708075 L87.6354969,8.26708075 Z" id="Fill-3" fill="#FFFFFF"></path>
                    <g id="Group-7" transform="translate(84.037267, 0.022615)">
                        <mask id="mask-2" fill="white">
                            <use xlink:href="#path-1"></use>
                        </mask>
                        <g id="Clip-6"></g>
                        <path d="M2.19962422,0.0457080745 L1.98543168,0.0457080745 C1.34592857,0.0457080745 0.966736025,0.484341615 0.510680124,0.939372671 C0.0556490683,1.39440373 0.000307453416,2.1568882 0.000307453416,2.7963913 L0.000307453416,2.93884472 C0.000307453416,3.57937267 0.0556490683,4.08257143 0.510680124,4.53657764 C0.966736025,4.9916087 1.34592857,5.16993168 1.98543168,5.16993168 L2.19962422,5.16993168 C2.83810248,5.16993168 3.1752764,4.9916087 3.6313323,4.53657764 C4.08636335,4.08257143 4.09968634,3.57937267 4.09968634,2.93884472 L4.09968634,2.7963913 C4.09968634,2.1568882 4.08636335,1.39440373 3.6313323,0.939372671 C3.1752764,0.484341615 2.83810248,0.0457080745 2.19962422,0.0457080745" id="Fill-5" fill="#FFFFFF" mask="url(#mask-2)"></path>
                    </g>
                    <path d="M118.571562,8.73963665 C117.589761,8.00687267 116.361997,7.63587888 114.92004,7.63587888 C112.149885,7.63587888 109.963891,8.70069255 108.409202,10.8057236 C107.968519,10.0473385 107.364885,9.37913975 106.60855,8.81035093 C105.567307,8.03146894 104.308798,7.63587888 102.867866,7.63587888 C101.271158,7.63587888 99.9726801,7.97715217 98.9498851,8.64945031 C98.3616242,9.03786646 97.3603509,9.48982298 97.3603509,10.004295 L97.3603509,9.97252484 C97.3603509,9.38118944 97.1174627,8.86876708 96.6972764,8.44653106 C95.8517795,7.6041087 94.5789224,7.60923292 93.7641708,8.45472981 C93.360382,8.8738913 93.260972,9.38528882 93.260972,9.97252484 L93.260972,25.3165 C93.260972,25.9088602 93.3480839,26.4151335 93.7549472,26.8230217 C94.5676491,27.6357236 95.908146,27.6387981 96.7505683,26.8291708 C97.174854,26.4212826 97.3603509,25.9119348 97.3603509,25.3165 L97.3603509,14.7308789 C98.3851957,13.8187671 98.5471211,13.0696056 99.2634876,12.5028665 C99.9665311,11.9463758 100.86122,11.6645435 101.95268,11.6645435 C103.11178,11.6645435 104.160196,11.9637981 104.603953,12.552059 C105.081531,13.185413 105.559109,14.2307547 105.559109,15.6593882 L105.559109,25.3165 C105.559109,25.9088602 105.523239,26.4151335 105.931127,26.8219969 C106.742804,27.6377733 108.148891,27.6377733 108.986189,26.8291708 C109.4115,26.4223075 109.658488,25.9129596 109.658488,25.3165 L109.658488,14.7308789 C109.658488,13.8177422 110.723301,13.0685807 111.438643,12.5028665 C112.141686,11.9463758 112.974885,11.6645435 114.066345,11.6645435 C115.225444,11.6645435 115.853674,11.9637981 116.298457,12.552059 C116.775009,13.185413 116.832401,14.2307547 116.832401,15.6593882 L116.832401,25.3165 C116.832401,25.9088602 117.186997,26.4161584 117.59386,26.8230217 C118.001748,27.2309099 118.582835,27.4379286 119.174171,27.4379286 C119.763457,27.4379286 120.07296,27.2329596 120.492121,26.8291708 C120.916407,26.4212826 120.93178,25.9119348 120.93178,25.3165 L120.93178,15.0157857 C120.93178,13.8105683 120.938953,12.638146 120.486997,11.5313137 C120.024792,10.3998851 119.536966,9.46010248 118.571562,8.73963665" id="Fill-8" fill="#FFFFFF"></path>
                    <path d="M129.695637,8.26708075 C128.891134,7.24223602 127.482997,7.51074534 126.651848,8.3736646 C126.248059,8.79282609 126.055388,9.38416149 126.055388,9.97242236 L126.055388,25.3163975 C126.055388,25.9087578 126.251134,26.4160559 126.657997,26.8229193 C127.06691,27.2308075 127.567034,27.4378261 128.159394,27.4378261 C128.747655,27.4378261 129.177065,27.2328571 129.595202,26.8300932 C130.020512,26.422205 130.154767,25.9128571 130.154767,25.3163975 L130.154767,9.97242236 C130.154767,9.35751553 130.021537,9.29192547 129.613649,8.26708075 L129.695637,8.26708075 Z" id="Fill-10" fill="#FFFFFF"></path>
                    <g id="Group-14" transform="translate(126.055901, 0.022615)">
                        <mask id="mask-4" fill="white">
                            <use xlink:href="#path-3"></use>
                        </mask>
                        <g id="Clip-13"></g>
                        <path d="M2.24113043,0.0457080745 L2.02591304,0.0457080745 C1.38743478,0.0457080745 0.986720497,0.484341615 0.531689441,0.939372671 C0.0756335404,1.39542857 -0.000204968944,2.1568882 -0.000204968944,2.7963913 L-0.000204968944,2.93884472 C-0.000204968944,3.57937267 0.0756335404,4.08154658 0.531689441,4.53657764 C0.986720497,4.9916087 1.38743478,5.16993168 2.02591304,5.16993168 L2.24113043,5.16993168 C2.88063354,5.16993168 3.19628571,4.9916087 3.65131677,4.53657764 C4.10737267,4.08257143 4.09917391,3.57937267 4.09917391,2.93884472 L4.09917391,2.7963913 C4.09917391,2.1568882 4.10737267,1.39440373 3.65131677,0.939372671 C3.19628571,0.484341615 2.88063354,0.0457080745 2.24113043,0.0457080745" id="Fill-12" fill="#FFFFFF" mask="url(#mask-4)"></path>
                    </g>
                    <path d="M144.247612,11.7011304 C145.026494,11.7011304 145.678295,11.783118 146.184568,11.9450435 C146.715438,12.1151677 147.369289,12.3990497 148.116401,12.7843913 C148.948575,13.2342981 149.842239,13.1328385 150.473543,12.4472174 C150.835314,12.0526522 151.018761,11.604795 151.018761,11.1169689 C151.018761,10.4190497 150.690811,9.83898758 150.06668,9.43314907 C149.251929,8.9135528 148.356214,8.48106832 147.404134,8.14799379 C146.435655,7.80774534 145.277581,7.63557143 143.96168,7.63557143 C142.170252,7.63557143 140.489506,8.04140994 138.967612,8.83976398 C137.435469,9.64221739 136.195407,10.8125901 135.28022,12.318087 C134.364009,13.8215342 133.899755,15.6088634 133.899755,17.6257578 C133.899755,19.6447019 134.364009,21.4310062 135.28022,22.9354783 C136.195407,24.4409752 137.435469,25.610323 138.966587,26.4127764 C140.487457,27.2121553 142.168202,27.6169689 143.96168,27.6169689 C145.277581,27.6169689 146.435655,27.444795 147.404134,27.1045466 C148.352115,26.7724969 149.247829,26.3400124 150.07078,25.8173416 C150.690811,25.4145776 151.018761,24.8334907 151.018761,24.1365963 C151.018761,23.6477453 150.835314,23.200913 150.473543,22.8063478 L150.472519,22.805323 C149.842239,22.1207267 148.936276,22.0254161 148.125624,22.4640497 C147.374413,22.8524658 146.720562,23.1363478 146.184568,23.3074969 C145.678295,23.4694224 145.026494,23.5514099 144.247612,23.5514099 C142.348575,23.5514099 140.847177,23.0072174 139.784413,21.9331801 C138.704227,20.8437702 138.179506,19.4346087 138.179506,17.6257578 C138.179506,15.8189565 138.704227,14.409795 139.784413,13.3193602 C140.847177,12.245323 142.348575,11.7011304 144.247612,11.7011304" id="Fill-15" fill="#FFFFFF"></path>
                    <path d="M166.024845,19.5403727 L166.024845,21.3645963 C165,22.0143478 164.70177,22.5708385 163.845,23.0207453 C162.947236,23.4921739 162.011553,23.7309627 161.051273,23.7309627 C159.827609,23.7309627 158.965714,23.5095963 158.480963,23.0740373 C158.00646,22.6487267 157.777919,22.3320497 157.777919,21.6177329 C157.777919,20.0825155 159.42382,19.5403727 162.667453,19.5403727 L166.024845,19.5403727 Z M169.368913,11.5117391 C168.789876,10.3669876 167.933106,9.42310559 166.719689,8.70878882 C165.512422,7.99754658 164.048944,7.6357764 162.319006,7.6357764 C160.160683,7.6357764 158.025932,8.08363354 155.945497,8.96397516 C155.132795,9.30832298 154.709534,9.94065217 154.709534,10.7953727 C154.709534,11.3170186 154.896056,11.7638509 155.255776,12.1235714 C155.616522,12.4843168 156.053106,12.6667391 156.550155,12.6667391 C156.713106,12.6667391 156.906801,12.6380435 157.17736,12.5693789 C158.009534,12.2906211 158.778168,12.080528 159.460714,11.9411491 C160.128913,11.8048447 160.90677,11.7361801 161.772764,11.7361801 C163.280311,11.7361801 164.387143,12.0456832 165.062516,12.6482919 C165.684596,13.2037578 166.016646,14.4161491 166.050466,15.4409938 L162.238043,15.4409938 C159.442267,15.4409938 157.275745,16.000559 155.79587,17.1135404 C154.271925,18.2603416 153.499193,19.8160559 153.499193,21.7417391 C153.499193,22.9080124 153.791273,23.9564286 154.367236,24.8593168 C154.941149,25.7611801 155.72823,26.455 156.705932,26.923354 C157.666211,27.3835093 158.720776,27.6171739 159.841957,27.6171739 C162.26264,27.6171739 164.350248,26.9192547 166.063789,25.537764 C166.108882,26.0358385 166.312826,26.4672981 166.668447,26.8218944 C167.479099,27.636646 168.745807,27.6407453 169.58823,26.8300932 C170.01354,26.4211801 170.124224,25.9118323 170.124224,25.3163975 L170.124224,15.1940062 C170.124224,13.8791304 169.939752,12.6400932 169.368913,11.5117391 L169.368913,11.5117391 Z" id="Fill-17" fill="#FFFFFF"></path>
                    <g id="Group-40" transform="translate(51.242236, 32.817646)">
                        <path d="M1.92681056,4.39104969 C2.08668634,4.47098758 2.3357236,4.54887578 2.67392236,4.6226646 C3.01109627,4.70875155 3.28575466,4.79278882 3.49789752,4.87580124 C3.71004037,4.95881366 3.89143789,5.08896894 4.04311491,5.26626708 C4.19479193,5.44459006 4.26960559,5.68132919 4.26960559,5.97955901 C4.26960559,6.34542857 4.12510248,6.64878261 3.83712112,6.88859627 C3.54811491,7.12943478 3.14022671,7.24934161 2.61345652,7.24934161 C2.04159317,7.24934161 1.52097205,7.12021118 1.05159317,6.86297516 C0.954232919,6.79431056 0.905040373,6.70002484 0.905040373,6.58011801 C0.905040373,6.48890683 0.936810559,6.4079441 1.00035093,6.3392795 C1.06286646,6.27061491 1.14280435,6.23679503 1.2401646,6.23679503 C1.29140683,6.23679503 1.34367391,6.24806832 1.39491615,6.27061491 C1.57836335,6.35157764 1.76078571,6.41409317 1.94423292,6.46021118 C2.12768012,6.50530435 2.33264907,6.52785093 2.56221429,6.52785093 C3.19761801,6.52785093 3.51531988,6.32493168 3.51531988,5.91909317 C3.51531988,5.78791304 3.44153106,5.68747826 3.29600311,5.61881366 C3.15047516,5.55014907 2.91066149,5.47226087 2.57963665,5.38719876 C2.24143789,5.30726087 1.96268012,5.2232236 1.74233851,5.13816149 C1.52199689,5.05207453 1.33342547,4.92191925 1.17559938,4.74769565 C1.01879814,4.5724472 0.939885093,4.34288199 0.939885093,4.05592547 C0.939885093,3.65623602 1.0843882,3.32931056 1.37339441,3.0782236 C1.66240062,2.8261118 2.07541304,2.7000559 2.61345652,2.7000559 C3.05413975,2.7000559 3.46920186,2.77179503 3.85864286,2.91424845 C3.93858075,2.93781988 4.00007143,2.97983851 4.04311491,3.04337888 C4.08615839,3.10691925 4.10665528,3.17250932 4.10665528,3.24117391 C4.10665528,3.33238509 4.07386025,3.41232298 4.00827019,3.48098758 C3.94268012,3.54965217 3.86069255,3.58449689 3.7633323,3.58449689 C3.73463665,3.58449689 3.69774224,3.57834783 3.65264907,3.56707453 C3.32059938,3.46356522 2.99469876,3.41232298 2.67392236,3.41232298 C2.36441925,3.41232298 2.1225559,3.46868944 1.9483323,3.58039752 C1.7741087,3.69108075 1.68699689,3.83558385 1.68699689,4.01390683 C1.68699689,4.1850559 1.76693478,4.3111118 1.92681056,4.39104969" id="Fill-19" fill="#FFFFFF"></path>
                        <path d="M11.4421863,2.94048447 C11.6563789,3.10036025 11.8152298,3.30635404 11.9187391,3.55846584 C12.0212236,3.81057764 12.0724658,4.07396273 12.0724658,4.34759627 L12.0724658,6.82054658 C12.0724658,6.92918012 12.0345466,7.0203913 11.9566584,7.09520497 C11.879795,7.16899379 11.7865342,7.20691304 11.6779006,7.20691304 C11.5692671,7.20691304 11.4780559,7.16899379 11.4032422,7.09520497 C11.3294534,7.0203913 11.2915342,6.92918012 11.2915342,6.82054658 L11.2915342,4.50234783 C11.2915342,4.13032919 11.2259441,3.8577205 11.094764,3.68247205 C10.962559,3.50824845 10.7370932,3.42113665 10.4163168,3.42113665 C10.124236,3.42113665 9.88237267,3.49697516 9.69072671,3.64865217 C9.49908075,3.80032919 9.32895652,3.99914907 9.18035404,4.2451118 L9.18035404,6.82054658 C9.18035404,6.92918012 9.14140994,7.0203913 9.06454658,7.09520497 C8.98665839,7.16899379 8.89442236,7.20691304 8.78578882,7.20691304 C8.67613043,7.20691304 8.58491925,7.16899379 8.51113043,7.09520497 C8.43631677,7.0203913 8.39942236,6.92918012 8.39942236,6.82054658 L8.39942236,4.50234783 C8.39942236,4.13032919 8.33280745,3.8577205 8.20162733,3.68247205 C8.06942236,3.50824845 7.84395652,3.42113665 7.52318012,3.42113665 C7.23212422,3.42113665 6.99026087,3.49697516 6.79861491,3.64865217 C6.6059441,3.80032919 6.43684472,3.99914907 6.28721739,4.2451118 L6.28721739,6.82054658 C6.28721739,6.92918012 6.24827329,7.0203913 6.17140994,7.09520497 C6.09454658,7.16899379 6.00128571,7.20691304 5.89265217,7.20691304 C5.78401863,7.20691304 5.69280745,7.16899379 5.61799379,7.09520497 C5.54318012,7.0203913 5.50628571,6.92918012 5.50628571,6.82054658 L5.50628571,3.1382795 C5.50628571,3.02964596 5.54318012,2.93638509 5.61799379,2.85849689 C5.69280745,2.78163354 5.78401863,2.74268944 5.89265217,2.74268944 C6.00128571,2.74268944 6.09454658,2.78163354 6.17140994,2.85849689 C6.24827329,2.93638509 6.28721739,3.02964596 6.28721739,3.1382795 L6.28721739,3.48980124 C6.44709317,3.26126087 6.64078882,3.0716646 6.8672795,2.92306211 C7.09274534,2.77445963 7.38687578,2.69964596 7.74659627,2.69964596 C8.06737267,2.69964596 8.34203106,2.78573292 8.57057143,2.95790683 C8.7991118,3.1290559 8.96308696,3.33812422 9.0604472,3.58408696 C9.41504348,2.99480124 9.94181366,2.69964596 10.6397329,2.69964596 C10.9594845,2.69964596 11.2269689,2.7806087 11.4421863,2.94048447" id="Fill-21" fill="#FFFFFF"></path>
                        <path d="M14.3132888,2.8545 C14.3870776,2.92931366 14.4249969,3.02359938 14.4249969,3.13735714 L14.4249969,6.82064907 C14.4249969,6.92928261 14.3860528,7.02049379 14.3091894,7.09428261 C14.2313012,7.16909627 14.1390652,7.20599068 14.0304317,7.20599068 C13.9207733,7.20599068 13.8295621,7.16909627 13.7547484,7.09428261 C13.6809596,7.02049379 13.6440652,6.92928261 13.6440652,6.82064907 L13.6440652,3.13735714 C13.6440652,3.0287236 13.6809596,2.93546273 13.7547484,2.85859938 C13.8295621,2.78173602 13.9207733,2.74279193 14.0304317,2.74279193 C14.1441894,2.74279193 14.2384752,2.77968634 14.3132888,2.8545 L14.3132888,2.8545 Z M14.5018602,1.45558696 C14.5018602,1.57549379 14.4588168,1.67797826 14.3737547,1.76406522 C14.2876677,1.85015217 14.1841584,1.89319565 14.0642516,1.89319565 L14.0130093,1.89319565 C13.8931025,1.89319565 13.7895932,1.85015217 13.7035062,1.76406522 C13.6174193,1.67797826 13.5754006,1.57549379 13.5754006,1.45558696 L13.5754006,1.42074224 C13.5754006,1.3008354 13.6174193,1.19835093 13.7035062,1.11226398 C13.7895932,1.02617702 13.8931025,0.98313354 14.0130093,0.98313354 L14.0642516,0.98313354 C14.1841584,0.98313354 14.2876677,1.02617702 14.3737547,1.11226398 C14.4588168,1.19835093 14.5018602,1.3008354 14.5018602,1.42074224 L14.5018602,1.45558696 Z" id="Fill-23" fill="#FFFFFF"></path>
                        <path d="M16.7679969,0.966018634 C16.8428106,1.0408323 16.879705,1.13511801 16.879705,1.24887578 L16.879705,6.81993168 C16.879705,6.92856522 16.8407609,7.02080124 16.7638975,7.09459006 C16.6870342,7.16940373 16.5937733,7.20629814 16.4851398,7.20629814 C16.3765062,7.20629814 16.2842702,7.16940373 16.2104814,7.09459006 C16.1356677,7.02080124 16.0987733,6.92856522 16.0987733,6.81993168 L16.0987733,1.24887578 C16.0987733,1.14024224 16.1356677,1.04800621 16.2104814,0.970118012 C16.2842702,0.893254658 16.3765062,0.854310559 16.4851398,0.854310559 C16.5988975,0.854310559 16.6931832,0.891204969 16.7679969,0.966018634" id="Fill-25" fill="#FFFFFF"></path>
                        <path d="M19.7378944,3.49410559 C19.549323,3.58326708 19.3914969,3.72162112 19.2664658,3.91019255 C19.1404099,4.09876398 19.0686708,4.33345342 19.0512484,4.61426087 L21.5836398,4.61426087 C21.5662174,4.33345342 21.4934534,4.09876398 21.364323,3.91019255 C21.2362174,3.72162112 21.0773665,3.58326708 20.8877702,3.49410559 C20.6991988,3.4049441 20.5075528,3.36087578 20.3128323,3.36087578 C20.1181118,3.36087578 19.9264658,3.4049441 19.7378944,3.49410559 M22.1073354,6.31345342 C22.176,6.37699379 22.2098199,6.45693168 22.2098199,6.55429193 C22.2098199,6.68034783 22.1360311,6.78590683 21.9864037,6.87199379 C21.7640124,6.99804969 21.5436708,7.0923354 21.3264037,7.15485093 C21.1081118,7.2183913 20.8283292,7.24913665 20.4850062,7.24913665 C19.7860621,7.24913665 19.2418696,7.05031677 18.849354,6.65267702 C18.4578634,6.25503727 18.2610932,5.69547205 18.2610932,4.97500621 C18.2610932,4.56814286 18.3359068,4.19407453 18.4845093,3.85075155 C18.6331118,3.50742857 18.862677,3.22969565 19.1711553,3.0175528 C19.4806584,2.80643478 19.8608758,2.69985093 20.3128323,2.69985093 C20.7360932,2.69985093 21.1029876,2.79823602 21.4114658,2.99603106 C21.7209689,3.19382609 21.9556584,3.45721118 22.1155342,3.78618634 C22.2754099,4.11516149 22.3563727,4.47385714 22.3563727,4.86329814 C22.3563727,4.97193168 22.3205031,5.06314286 22.248764,5.13795652 C22.1770248,5.21174534 22.0817143,5.2496646 21.9607826,5.2496646 L19.0512484,5.2496646 C19.0973665,5.65037888 19.2459689,5.96193168 19.4980807,6.18534783 C19.7491677,6.40773913 20.1017143,6.5194472 20.5536708,6.5194472 C20.7934845,6.5194472 21.0035776,6.49690062 21.1839503,6.45078261 C21.364323,6.40568944 21.5405963,6.34009938 21.7127702,6.25401242 C21.7578634,6.23146584 21.8091056,6.2191677 21.8664969,6.2191677 C21.9587329,6.2191677 22.0386708,6.25093789 22.1073354,6.31345342" id="Fill-27" fill="#FFFFFF"></path>
                        <path d="M28.1415186,6.37801863 C28.3762081,6.25503727 28.5740031,6.1023354 28.7338789,5.9188882 L28.7338789,5.19739752 L27.7981957,5.19739752 C26.9342516,5.19739752 26.5017671,5.4238882 26.5017671,5.87584472 C26.5017671,6.08183851 26.5724814,6.24786335 26.7118602,6.37391925 C26.852264,6.49997516 27.0859286,6.56249068 27.4118292,6.56249068 C27.663941,6.56249068 27.9068292,6.501 28.1415186,6.37801863 M28.7205559,2.94068944 C28.9931646,3.10056522 29.1930093,3.3086087 29.3221398,3.56277019 C29.4502453,3.81795652 29.5148106,4.09363975 29.5148106,4.39084472 L29.5148106,6.81972671 C29.5148106,6.92836025 29.4768913,7.02059627 29.3990031,7.09438509 C29.3221398,7.16919876 29.2288789,7.20609317 29.1202453,7.20609317 C29.0116118,7.20609317 28.9193758,7.16919876 28.845587,7.09438509 C28.7707733,7.02059627 28.7338789,6.92836025 28.7338789,6.81972671 L28.7338789,6.5973354 C28.310618,7.03186957 27.7725745,7.24913665 27.1197484,7.24913665 C26.8686615,7.24913665 26.6349969,7.19789441 26.4208043,7.09438509 C26.205587,6.99190062 26.0354627,6.84124845 25.9104317,6.64447826 C25.7843758,6.44668323 25.7208354,6.2191677 25.7208354,5.96193168 C25.7208354,5.53867081 25.8878851,5.20047205 26.2230093,4.94836025 C26.5581335,4.69727329 27.0490342,4.57121739 27.6946863,4.57121739 L28.7338789,4.57121739 L28.7338789,4.5025528 C28.7338789,4.12438509 28.640618,3.85280124 28.4551211,3.6867764 C28.2685994,3.5217764 27.9785683,3.43773913 27.5840031,3.43773913 C27.3657112,3.43773913 27.1730404,3.45516149 27.003941,3.49000621 C26.8358665,3.52382609 26.6483199,3.57506832 26.4423261,3.64373292 C26.3962081,3.65603106 26.3593137,3.66115528 26.330618,3.66115528 C26.2445311,3.66115528 26.1697174,3.63040994 26.1072019,3.56686957 C26.0436615,3.50435404 26.0129161,3.42646584 26.0129161,3.33525466 C26.0129161,3.18050311 26.086705,3.07186957 26.2363323,3.00935404 C26.7221087,2.8023354 27.2171087,2.69985093 27.7213323,2.69985093 C28.1158975,2.69985093 28.448972,2.77978882 28.7205559,2.94068944" id="Fill-29" fill="#FFFFFF"></path>
                        <g id="Group-33" transform="translate(29.720497, 2.049689)">
                            <mask id="mask-6" fill="white">
                                <use xlink:href="#path-5"></use>
                            </mask>
                            <g id="Clip-32"></g>
                            <path d="M3.80330124,1.5345 C3.59730745,1.41971739 3.35954348,1.36232609 3.09103416,1.36232609 C2.66162422,1.36232609 2.31112733,1.49248137 2.03954348,1.75279193 C1.76693478,2.01412733 1.63165528,2.39024534 1.63165528,2.88217081 C1.63165528,3.37409627 1.76693478,3.75021429 2.03954348,4.01052484 C2.31112733,4.27186025 2.66162422,4.40099068 3.09103416,4.40099068 C3.35954348,4.40099068 3.59730745,4.34462422 3.80330124,4.22984161 C4.00929503,4.11505901 4.20709006,3.9613323 4.39566149,3.7666118 L4.39566149,1.99772981 C4.20709006,1.80300932 4.00929503,1.64928261 3.80330124,1.5345 M5.06078571,0.808909938 C5.13764907,0.885773292 5.17659317,0.979034161 5.17659317,1.0876677 L5.17659317,4.92468634 C5.17659317,5.64617702 5.00236957,6.20164286 4.65289752,6.59005901 C4.30342547,6.9795 3.80637578,7.1742205 3.15969876,7.1742205 C2.82764907,7.1742205 2.49252484,7.13117702 2.15535093,7.04509006 C1.81715217,6.95900311 1.5404441,6.8534441 1.32215217,6.7273882 C1.2196677,6.66487267 1.16842547,6.56443789 1.16842547,6.4271087 C1.16842547,6.33589752 1.2012205,6.25390994 1.26681056,6.18217081 C1.33240062,6.11145652 1.4143882,6.07558696 1.51174845,6.07558696 C1.55684161,6.07558696 1.60808385,6.08686025 1.66547516,6.10940683 C2.10103416,6.32667391 2.57246273,6.4363323 3.08181056,6.4363323 C3.9580528,6.4363323 4.39566149,5.96900311 4.39566149,5.03639441 L4.39566149,4.46145652 C3.98879814,4.89701553 3.4999472,5.11428261 2.92808385,5.11428261 C2.58988509,5.11428261 2.26193478,5.0292205 1.94525776,4.86114596 C1.6275559,4.69204658 1.36519565,4.43993478 1.15920186,4.10481056 C0.953208075,3.77071118 0.850723602,3.36282298 0.850723602,2.88217081 C0.850723602,2.40151863 0.953208075,1.99363043 1.15920186,1.65850621 C1.36519565,1.32440683 1.6275559,1.07229503 1.94525776,0.903195652 C2.26193478,0.735121118 2.58988509,0.650059006 2.92808385,0.650059006 C3.4999472,0.650059006 3.98879814,0.867326087 4.39566149,1.30288509 L4.39566149,1.0876677 C4.39566149,0.979034161 4.4325559,0.885773292 4.50736957,0.808909938 C4.58115839,0.732046584 4.67339441,0.693102484 4.78202795,0.693102484 C4.89066149,0.693102484 4.98392236,0.732046584 5.06078571,0.808909938" id="Fill-31" fill="#FFFFFF" mask="url(#mask-6)"></path>
                        </g>
                        <path d="M38.3218137,6.37801863 C38.5565031,6.25503727 38.7542981,6.1023354 38.9141739,5.9188882 L38.9141739,5.19739752 L37.9784907,5.19739752 C37.1145466,5.19739752 36.6820621,5.4238882 36.6820621,5.87584472 C36.6820621,6.08183851 36.7527764,6.24786335 36.8921553,6.37391925 C37.032559,6.49997516 37.2662236,6.56249068 37.5921242,6.56249068 C37.844236,6.56249068 38.0871242,6.501 38.3218137,6.37801863 M38.9008509,2.94068944 C39.1734596,3.10056522 39.3733043,3.3086087 39.5024348,3.56277019 C39.6305404,3.81795652 39.6951056,4.09363975 39.6951056,4.39084472 L39.6951056,6.81972671 C39.6951056,6.92836025 39.6571863,7.02059627 39.5792981,7.09438509 C39.5024348,7.16919876 39.4091739,7.20609317 39.3005404,7.20609317 C39.1919068,7.20609317 39.0996708,7.16919876 39.025882,7.09438509 C38.9510683,7.02059627 38.9141739,6.92836025 38.9141739,6.81972671 L38.9141739,6.5973354 C38.490913,7.03186957 37.9528696,7.24913665 37.3000435,7.24913665 C37.0489565,7.24913665 36.8152919,7.19789441 36.6010994,7.09438509 C36.385882,6.99190062 36.2157578,6.84124845 36.0907267,6.64447826 C35.9646708,6.44668323 35.9011304,6.2191677 35.9011304,5.96193168 C35.9011304,5.53867081 36.0681801,5.20047205 36.4033043,4.94836025 C36.7384286,4.69727329 37.2293292,4.57121739 37.8749814,4.57121739 L38.9141739,4.57121739 L38.9141739,4.5025528 C38.9141739,4.12438509 38.820913,3.85280124 38.6354161,3.6867764 C38.4488944,3.5217764 38.1588634,3.43773913 37.7642981,3.43773913 C37.5460062,3.43773913 37.3533354,3.45516149 37.184236,3.49000621 C37.0161615,3.52382609 36.8286149,3.57506832 36.6226211,3.64373292 C36.5765031,3.65603106 36.5396087,3.66115528 36.510913,3.66115528 C36.4248261,3.66115528 36.3500124,3.63040994 36.2874969,3.56686957 C36.2239565,3.50435404 36.1932112,3.42646584 36.1932112,3.33525466 C36.1932112,3.18050311 36.267,3.07186957 36.4166273,3.00935404 C36.9024037,2.8023354 37.3974037,2.69985093 37.9016273,2.69985093 C38.2961925,2.69985093 38.6292671,2.77978882 38.9008509,2.94068944" id="Fill-34" fill="#FFFFFF"></path>
                        <path d="M41.7210186,2.8545 C41.7948075,2.92931366 41.8327267,3.02359938 41.8327267,3.13735714 L41.8327267,6.82064907 C41.8327267,6.92928261 41.7937826,7.02049379 41.7169193,7.09428261 C41.6390311,7.16909627 41.546795,7.20599068 41.4381615,7.20599068 C41.3285031,7.20599068 41.2372919,7.16909627 41.1624783,7.09428261 C41.0886894,7.02049379 41.051795,6.92928261 41.051795,6.82064907 L41.051795,3.13735714 C41.051795,3.0287236 41.0886894,2.93546273 41.1624783,2.85859938 C41.2372919,2.78173602 41.3285031,2.74279193 41.4381615,2.74279193 C41.5519193,2.74279193 41.646205,2.77968634 41.7210186,2.8545 L41.7210186,2.8545 Z M41.9095901,1.45558696 C41.9095901,1.57549379 41.8665466,1.67797826 41.7814845,1.76406522 C41.6953975,1.85015217 41.5918882,1.89319565 41.4719814,1.89319565 L41.4207391,1.89319565 C41.3008323,1.89319565 41.197323,1.85015217 41.111236,1.76406522 C41.0251491,1.67797826 40.9831304,1.57549379 40.9831304,1.45558696 L40.9831304,1.42074224 C40.9831304,1.3008354 41.0251491,1.19835093 41.111236,1.11226398 C41.197323,1.02617702 41.3008323,0.98313354 41.4207391,0.98313354 L41.4719814,0.98313354 C41.5918882,0.98313354 41.6953975,1.02617702 41.7814845,1.11226398 C41.8665466,1.19835093 41.9095901,1.3008354 41.9095901,1.42074224 L41.9095901,1.45558696 Z" id="Fill-36" fill="#FFFFFF"></path>
                        <path d="M46.4205466,2.92295963 C46.6521615,3.07258696 46.8294596,3.27550621 46.952441,3.53274224 C47.0754224,3.78997826 47.136913,4.07386025 47.136913,4.38233851 L47.136913,6.8204441 C47.136913,6.92907764 47.0989938,7.02028882 47.0211056,7.09510248 C46.9442422,7.1688913 46.8509814,7.20681056 46.7423478,7.20681056 C46.6337143,7.20681056 46.5425031,7.1688913 46.4676894,7.09510248 C46.3928758,7.02028882 46.3559814,6.92907764 46.3559814,6.8204441 L46.3559814,4.46842547 C46.3559814,3.76948137 46.041354,3.42103416 45.4120994,3.42103416 C45.1261677,3.42103416 44.8699565,3.49584783 44.6434658,3.64445031 C44.4169752,3.7930528 44.2048323,3.99289752 44.0039627,4.24500932 L44.0039627,6.8204441 C44.0039627,6.92907764 43.9650186,7.02028882 43.8881553,7.09510248 C43.8112919,7.1688913 43.7180311,7.20681056 43.6093975,7.20681056 C43.500764,7.20681056 43.4095528,7.1688913 43.3347391,7.09510248 C43.2599255,7.02028882 43.2230311,6.92907764 43.2230311,6.8204441 L43.2230311,3.13817702 C43.2230311,3.02954348 43.2599255,2.93628261 43.3347391,2.85839441 C43.4095528,2.78153106 43.500764,2.74258696 43.6093975,2.74258696 C43.7180311,2.74258696 43.8112919,2.78153106 43.8881553,2.85839441 C43.9650186,2.93628261 44.0039627,3.02954348 44.0039627,3.13817702 L44.0039627,3.48969876 C44.2212298,3.24886025 44.4559193,3.05823913 44.7080311,2.91476087 C44.9601429,2.77128261 45.2573478,2.69954348 45.6006708,2.69954348 C45.9152981,2.69954348 46.1889317,2.77435714 46.4205466,2.92295963" id="Fill-38" fill="#FFFFFF"></path>
                    </g>
                    <path d="M35.9855776,17.8670062 C35.1964472,18.6356398 33.9358882,18.6151429 33.1775031,17.8260124 C32.8802981,17.5288075 32.5011056,17.2418509 32.1116646,17.0061366 C31.3942733,16.5961988 30.6358882,16.3707329 29.8570062,16.350236 C29.7545217,16.350236 27.5920994,16.3912298 26.2700497,17.8875031 C25.8293665,18.3794286 25.5014161,18.8303602 25.2657019,19.5170062 C24.9684969,20.3881242 24.8250186,21.597441 24.8352671,23.2166957 C24.8455155,25.194646 24.6712919,26.5781863 24.2818509,27.715764 C23.8514161,28.9660745 23.1955155,29.7654534 22.611354,30.421354 C22.1399255,30.9440248 21.5660124,31.3744596 20.8998634,31.7024099 C20.3976894,31.9483727 19.8340248,32.1328447 19.2396149,32.2558261 C18.7271925,32.3583106 18.1942733,32.4095528 17.6511056,32.4198012 C17.4973789,32.4198012 17.3539006,32.4198012 17.2001739,32.4095528 C16.5545217,32.4095528 15.9088696,32.2968199 15.2837143,32.0816025 C14.7815404,31.9073789 14.2793665,31.6614161 13.8079379,31.3539627 C12.9983106,30.8210435 12.4653913,30.2266335 12.2706708,30.0114161 C12.2501739,29.9909193 12.2399255,29.9806708 12.2399255,29.9704224 C11.4815404,29.1812919 11.5225342,27.9207329 12.321913,27.1725963 C13.1110435,26.4142112 14.3716025,26.4449565 15.1299876,27.2443354 C15.1607329,27.2750807 15.1812298,27.3058261 15.2119752,27.3365714 C15.345205,27.4800497 15.6116646,27.9422547 15.9908571,28.1984658 C16.4110435,28.4751739 16.8004845,28.7641801 17.2104224,28.7641801 L17.2206708,28.7641801 C17.2821615,28.7641801 17.3334037,28.6084037 17.3743975,28.6084037 C18.1532795,28.6391491 19.1576273,28.4034348 19.6495528,27.8602671 C20.1004845,27.3478447 20.3566957,26.9727516 20.5309193,26.4705776 C20.7563851,25.7839317 20.869118,24.7262919 20.8588696,23.260764 C20.8486211,21.1598323 21.0535901,19.5590248 21.5147702,18.2369752 C21.9861988,16.8534348 22.6830932,15.941323 23.2877516,15.254677 C23.8924099,14.5782795 24.5995528,14.0033416 25.4194286,13.5524099 C26.0548323,13.2039627 26.7517267,12.9170062 27.4896149,12.7222857 C28.8014161,12.3635901 29.8262609,12.3738385 29.9389938,12.3738385 C30.7383727,12.3943354 31.5377516,12.5275652 32.2961366,12.773528 C32.9315404,12.9682484 33.5361988,13.2347081 34.1203602,13.5831553 C34.8275031,13.9930932 35.4834037,14.5055155 36.0265714,15.0589317 C36.7849565,15.8480621 36.7747081,17.1086211 35.9855776,17.8670062 M8.19178882,18.0104845 C7.41290683,18.7893665 6.16259627,18.7996149 5.38371429,18.0309814 C4.59458385,17.2623478 4.59458385,16.0017888 5.36321739,15.2229068 C6.20359006,14.3620373 7.19768944,13.6958882 8.30452174,13.2449565 C9.37036025,12.8042733 10.4976894,12.5788075 11.655764,12.568559 C12.8138385,12.5583106 13.9411677,12.773528 15.0070062,13.2039627 C16.124087,13.644646 17.1181863,14.3005466 17.9688075,15.1409193 C18.7579379,15.9198012 18.7579379,17.1701118 17.9893043,17.9489938 C17.5998634,18.3486832 17.0976894,18.5434037 16.5852671,18.5434037 C16.0830932,18.5434037 15.5706708,18.3589317 15.1812298,17.9694907 C14.2383727,17.036882 12.9983106,16.5347081 11.6762609,16.5449565 C10.3542112,16.5449565 9.11414907,17.0676273 8.19178882,18.0104845 M36.8361988,1.09337267 L3.94893168,1.09337267 C1.88899379,1.09337267 0.000204968944,2.75054658 0.000204968944,4.82073292 L0.000204968944,37.6977516 C0.000204968944,39.7679379 1.88899379,41.0623168 3.94893168,41.0623168 L36.8361988,41.0623168 C38.8961366,41.0623168 40.9939938,39.7679379 40.9939938,37.6977516 L40.9939938,4.82073292 C40.9939938,2.75054658 38.8961366,1.09337267 36.8361988,1.09337267" id="Fill-41" fill="#FFFFFF"></path>
                </g>
            </g>
        </g>
    </g>
</svg>