<?xml version="1.0" encoding="UTF-8"?>
<svg width="31px" height="30px" viewBox="0 0 31 30" version="1.1" xmlns="http://www.w3.org/2000/svg" xmlns:xlink="http://www.w3.org/1999/xlink">
    <!-- Generator: Sketch 46.2 (44496) - http://www.bohemiancoding.com/sketch -->
    <title>Group 2</title>
    <desc>Created with Sketch.</desc>
    <defs>
        <linearGradient x1="4.22562093%" y1="0%" x2="95.5873371%" y2="100%" id="linearGradient-1">
            <stop stop-color="#FC6036" offset="0%"></stop>
            <stop stop-color="#FF2D55" offset="100%"></stop>
        </linearGradient>
    </defs>
    <g id="Page-1" stroke="none" stroke-width="1" fill="none" fill-rule="evenodd">
        <g id="Desktop" transform="translate(-69.000000, -1013.000000)" fill="url(#linearGradient-1)">
            <g id="About" transform="translate(0.000000, 800.000000)">
                <g id="Group-2" transform="translate(69.000000, 213.000000)">
                    <path d="M27.4659862,18.1261391 C26.6317026,21.2432819 24.6331363,23.8475676 21.8388577,25.4604248 C19.0445792,27.0747105 15.7903018,27.5032819 12.6745955,26.6675676 C9.55746063,25.8318533 6.95318159,23.8332819 5.34032858,21.0389962 C3.726047,18.2461391 3.29890524,14.9904248 4.13318881,11.8747105 C4.96747239,8.75756763 6.9660387,6.15328191 9.76031725,4.54042477 C11.6017411,3.47756763 13.6817358,2.91613905 15.7788733,2.91613905 C16.8331563,2.91613905 17.891725,3.05613905 18.926008,3.33328191 C22.0417143,4.16756763 24.6459934,6.16756763 26.2588464,8.96042477 C27.873128,11.7547105 28.3002697,15.0089962 27.4659862,18.1261391 M28.7845542,7.50328191 C26.7817022,4.03471048 23.5488533,1.55328191 19.6802918,0.517567626 C15.8117303,-0.519575231 11.7703121,0.0132819117 8.30317813,2.01471048 C4.83461559,4.01756763 2.35319338,7.25042477 1.31748175,11.1189962 C0.280341548,14.9875676 0.811768757,19.0275676 2.81462077,22.4975676 C4.81747278,25.9661391 8.05032163,28.4461391 11.9188831,29.4832819 C13.2003084,29.8261391 14.5131622,30.0004248 15.8231589,30.0004248 C18.4288665,30.0004248 21.0131455,29.3032819 23.2974254,27.9847105 C26.7659879,25.9818533 29.2474102,22.7489962 30.2831218,18.8804248 C31.3188334,15.0118533 30.7874062,10.9718533 28.7845542,7.50328191" id="Fill-1"></path>
                    <path d="M20.1877143,15.0004286 L12.942,19.1832857 L12.942,10.8175714 L20.1877143,15.0004286 Z M23.0091429,13.0347143 L13.8277143,7.73471429 C13.1162857,7.32185714 12.1005714,7.32328571 11.3891429,7.73328571 C10.6777143,8.14328571 10.0848571,8.879 10.0848571,9.70042857 L10.0848571,20.3004286 C10.0848571,21.1218571 10.6777143,21.8575714 11.3891429,22.2675714 C11.7362857,22.4675714 12.2134286,22.5732857 12.6077143,22.5732857 C13.0034286,22.5732857 13.4377143,22.4675714 13.7848571,22.2675714 L22.9877143,16.9661429 C23.6991429,16.5561429 24.1334286,15.8204286 24.1334286,15.0004286 C24.1334286,14.179 23.7191429,13.4447143 23.0091429,13.0347143 L23.0091429,13.0347143 Z" id="Fill-4"></path>
                </g>
            </g>
        </g>
    </g>
</svg>