<?xml version="1.0" encoding="UTF-8"?>
<svg width="30px" height="50px" viewBox="0 0 30 50" version="1.1" xmlns="http://www.w3.org/2000/svg" xmlns:xlink="http://www.w3.org/1999/xlink">
    <!-- Generator: Sketch 46.2 (44496) - http://www.bohemiancoding.com/sketch -->
    <title>smartphone</title>
    <desc>Created with Sketch.</desc>
    <defs>
        <linearGradient x1="50%" y1="0%" x2="50%" y2="100%" id="linearGradient-1">
            <stop stop-color="#FC6036" offset="0%"></stop>
            <stop stop-color="#FF2D55" offset="100%"></stop>
        </linearGradient>
    </defs>
    <g id="Page-1" stroke="none" stroke-width="1" fill="none" fill-rule="evenodd">
        <g id="Desktop" transform="translate(-162.000000, -1632.000000)" fill-rule="nonzero" fill="url(#linearGradient-1)">
            <g id="About" transform="translate(0.000000, 800.000000)">
                <g id="solutions" transform="translate(22.000000, 806.000000)">
                    <g id="ic" transform="translate(105.000000, 0.000000)">
                        <g id="smartphone" transform="translate(35.000000, 26.000000)">
                            <g id="Capa_1">
                                <g id="Group">
                                    <path d="M25.4958333,0 L4.50416667,0 C2.48083333,0 0.833333333,1.6475 0.833333333,3.67083333 L0.833333333,46.3283333 C0.833333333,48.3525 2.48083333,50 4.50416667,50 L25.495,50 C27.5191667,50 29.1666667,48.3525 29.1666667,46.3291667 L29.1666667,3.67083333 C29.1666667,1.6475 27.5191667,0 25.4958333,0 Z M2.5,6.66666667 L27.5,6.66666667 L27.5,38.3333333 L2.5,38.3333333 L2.5,6.66666667 Z M4.50416667,1.66666667 L25.495,1.66666667 C26.6008333,1.66666667 27.5,2.56583333 27.5,3.67083333 L27.5,5 L2.5,5 L2.5,3.67083333 C2.5,2.56583333 3.39916667,1.66666667 4.50416667,1.66666667 Z M25.4958333,48.3333333 L4.50416667,48.3333333 C3.39916667,48.3333333 2.5,47.4341667 2.5,46.3291667 L2.5,40 L27.5,40 L27.5,46.3291667 C27.5,47.4341667 26.6008333,48.3333333 25.4958333,48.3333333 Z" id="Shape"></path>
                                    <path d="M15,40.8333333 C13.1616667,40.8333333 11.6666667,42.3283333 11.6666667,44.1666667 C11.6666667,46.005 13.1616667,47.5 15,47.5 C16.8383333,47.5 18.3333333,46.005 18.3333333,44.1666667 C18.3333333,42.3283333 16.8383333,40.8333333 15,40.8333333 Z M15,45.8333333 C14.0808333,45.8333333 13.3333333,45.0858333 13.3333333,44.1666667 C13.3333333,43.2475 14.0808333,42.5 15,42.5 C15.9191667,42.5 16.6666667,43.2475 16.6666667,44.1666667 C16.6666667,45.0858333 15.9191667,45.8333333 15,45.8333333 Z" id="Shape"></path>
                                    <path d="M11.6666667,4.16666667 L15,4.16666667 C15.4608333,4.16666667 15.8333333,3.79416667 15.8333333,3.33333333 C15.8333333,2.8725 15.4608333,2.5 15,2.5 L11.6666667,2.5 C11.2058333,2.5 10.8333333,2.8725 10.8333333,3.33333333 C10.8333333,3.79416667 11.2058333,4.16666667 11.6666667,4.16666667 Z" id="Shape"></path>
                                    <path d="M17.5,4.16666667 L18.3333333,4.16666667 C18.7941667,4.16666667 19.1666667,3.79416667 19.1666667,3.33333333 C19.1666667,2.8725 18.7941667,2.5 18.3333333,2.5 L17.5,2.5 C17.0391667,2.5 16.6666667,2.8725 16.6666667,3.33333333 C16.6666667,3.79416667 17.0391667,4.16666667 17.5,4.16666667 Z" id="Shape"></path>
                                </g>
                            </g>
                        </g>
                    </g>
                </g>
            </g>
        </g>
    </g>
</svg>