<?xml version="1.0" encoding="UTF-8"?>
<svg width="224px" height="44px" viewBox="0 0 224 44" version="1.1" xmlns="http://www.w3.org/2000/svg" xmlns:xlink="http://www.w3.org/1999/xlink">
    <!-- Generator: Sketch 46.2 (44496) - http://www.bohemiancoding.com/sketch -->
    <title>Group 11</title>
    <desc>Created with Sketch.</desc>
    <defs></defs>
    <g id="Page-1" stroke="none" stroke-width="1" fill="none" fill-rule="evenodd" fill-opacity="0.8">
        <g id="Desktop" transform="translate(-616.000000, -4758.000000)" fill-rule="nonzero" fill="#FFFFFF">
            <g id="Contacts" transform="translate(1.000000, 4321.000000)">
                <g id="Group-10" transform="translate(82.000000, 200.000000)">
                    <g id="Group-11" transform="translate(533.000000, 237.000000)">
                        <g id="Group" transform="translate(60.392157, 0.862745)">
                            <path d="M17.5933974,26.2287715 C20.8216487,24.5547819 24.0217287,22.8961985 27.2513005,21.2213285 C24.0120448,19.5310524 20.8128451,17.8627851 17.5933974,16.1826331 C17.5933974,19.5429372 17.5933974,22.8689076 17.5933974,26.2287715 Z" id="Shape"></path>
                            <path d="M21.5136054,0 C9.63237295,0 0,9.63193277 0,21.5136054 C0,33.3952781 9.63237295,43.0272109 21.5136054,43.0272109 C33.3948379,43.0272109 43.0272109,33.3952781 43.0272109,21.5136054 C43.0272109,9.63193277 33.3948379,0 21.5136054,0 Z M36.1719088,28.6946379 C35.7995198,30.310084 34.4781112,31.5016407 32.8877551,31.6790316 C29.1211685,32.1002801 25.3092437,32.102481 21.5127251,32.1002801 C17.7162065,32.102481 13.9034014,32.1002801 10.1359344,31.6790316 C8.54557823,31.5016407 7.22505002,30.310084 6.85354142,28.6946379 C6.3240096,26.3933974 6.3240096,23.8821929 6.3240096,21.5136054 C6.3240096,19.145018 6.33017207,16.6329332 6.85970388,14.332573 C7.23121248,12.7171269 8.5517407,11.5251301 10.1420968,11.3472989 C13.9095638,10.9264906 17.7223689,10.9242897 21.5188876,10.9264906 C25.3145258,10.9242897 29.1273309,10.9264906 32.8934774,11.3472989 C34.4847139,11.5251301 35.8061224,12.7166867 36.1776311,14.332573 C36.7071629,16.6333733 36.7027611,19.145018 36.7027611,21.5136054 C36.7027611,23.8821929 36.7014406,26.3938375 36.1719088,28.6946379 Z" id="Shape"></path>
                        </g>
                        <g id="Group" transform="translate(120.784314, 0.862745)">
                            <path d="M21.4176471,25.7063529 C23.7807059,25.7063529 25.7072157,23.7832941 25.7072157,21.4185098 C25.7072157,20.4850196 25.4018039,19.6231373 24.8962353,18.9191373 C24.1171765,17.8389804 22.8506667,17.1306667 21.4202353,17.1306667 C19.9889412,17.1306667 18.7232941,17.8381176 17.9425098,18.9182745 C17.4352157,19.6222745 17.1323922,20.4841569 17.1315294,21.4176471 C17.1289412,23.7824314 19.0537255,25.7063529 21.4176471,25.7063529 Z" id="Shape"></path>
                            <polygon id="Shape" points="30.7810196 16.1730196 30.7810196 12.5788235 30.7810196 12.0439216 30.2435294 12.0456471 26.6510588 12.0568627 26.6648627 16.1868235"></polygon>
                            <path d="M21.4185098,0 C9.60839216,0 0,9.60839216 0,21.4185098 C0,33.2277647 9.60839216,42.8370196 21.4185098,42.8370196 C33.2277647,42.8370196 42.8370196,33.2277647 42.8370196,21.4185098 C42.8370196,9.60839216 33.2294902,0 21.4185098,0 Z M33.5996078,18.9191373 L33.5996078,28.8924706 C33.5996078,31.4901961 31.4876078,33.6013333 28.8916078,33.6013333 L13.9454118,33.6013333 C11.348549,33.6013333 9.23741176,31.4901961 9.23741176,28.8924706 L9.23741176,18.9191373 L9.23741176,13.9462745 C9.23741176,11.3494118 11.348549,9.23827451 13.9454118,9.23827451 L28.8907451,9.23827451 C31.4876078,9.23827451 33.5996078,11.3494118 33.5996078,13.9462745 L33.5996078,18.9191373 Z" id="Shape"></path>
                            <path d="M28.0814902,21.4185098 C28.0814902,25.0912157 25.0929412,28.0814902 21.4185098,28.0814902 C17.7440784,28.0814902 14.7563922,25.0912157 14.7563922,21.4185098 C14.7563922,20.5350588 14.9323922,19.6904314 15.2464314,18.9191373 L11.6099608,18.9191373 L11.6099608,28.8924706 C11.6099608,30.1814118 12.6564706,31.2253333 13.944549,31.2253333 L28.8898824,31.2253333 C30.1762353,31.2253333 31.2244706,30.1814118 31.2244706,28.8924706 L31.2244706,18.9191373 L27.5862745,18.9191373 C27.902902,19.6904314 28.0814902,20.5350588 28.0814902,21.4185098 Z" id="Shape"></path>
                        </g>
                        <g id="001-twitter-logo-button" transform="translate(181.176471, 0.000000)">
                            <path d="M21.4185098,0 C9.60839216,0 0,9.60839216 0,21.4185098 C0,33.2277647 9.60839216,42.8370196 21.4185098,42.8370196 C33.2277647,42.8370196 42.8370196,33.2277647 42.8370196,21.4185098 C42.8370196,9.60839216 33.2294902,0 21.4185098,0 Z M30.9734118,16.5163922 C30.982902,16.7286275 30.9880784,16.9425882 30.9880784,17.156549 C30.9880784,23.6711373 26.0307451,31.1804706 16.9607059,31.1804706 C14.1766275,31.1804706 11.5849412,30.366902 9.40392157,28.9675294 C9.78956863,29.0132549 10.1821176,29.036549 10.5798431,29.036549 C12.8902745,29.036549 15.0152157,28.248 16.7027451,26.9262745 C14.5458824,26.8865882 12.7246275,25.4613333 12.0974118,23.5020392 C12.3976471,23.5589804 12.7073725,23.590902 13.024,23.590902 C13.4734902,23.590902 13.9100392,23.5322353 14.3232941,23.4192157 C12.0680784,22.9671373 10.3693333,20.9750588 10.3693333,18.5852549 C10.3693333,18.564549 10.3693333,18.5429804 10.3701961,18.5231373 C11.0345098,18.8915294 11.7945882,19.1141176 12.6021176,19.1391373 C11.2803922,18.256549 10.4098824,16.7467451 10.4098824,15.0367843 C10.4098824,14.1326275 10.6523137,13.2854118 11.0767843,12.5572549 C13.5071373,15.5406275 17.1410196,17.5025098 21.2373333,17.7095686 C21.1527843,17.3480784 21.1105098,16.9727843 21.1105098,16.5854118 C21.1105098,13.863451 23.3174118,11.6556863 26.0393725,11.6556863 C27.4577255,11.6556863 28.7371765,12.2544314 29.6378824,13.2120784 C30.7620392,12.9912157 31.8145882,12.5822745 32.7696471,12.015451 C32.3986667,13.1672157 31.6196078,14.1326275 30.5989804,14.743451 C31.5971765,14.6243922 32.5496471,14.3603922 33.4305098,13.9678431 C32.773098,14.9548235 31.937098,15.8236078 30.9734118,16.5163922 Z" id="Shape"></path>
                        </g>
                        <path d="M21.5686275,0 C9.67573527,0 0,9.67573527 0,21.5686275 C0,33.4606508 9.67573527,43.1372549 21.5686275,43.1372549 C33.4606508,43.1372549 43.1372549,33.4606508 43.1372549,21.5686275 C43.1372549,9.67573527 33.4623884,0 21.5686275,0 Z M26.9325486,22.3279516 L23.4234981,22.3279516 L23.4234981,34.8350796 L18.2237787,34.8350796 L18.2237787,22.3279516 L15.7520658,22.3279516 L15.7520658,17.9075384 L18.2237787,17.9075384 L18.2237787,15.0483443 C18.2237787,13.0006018 19.1968256,9.80084131 23.4712817,9.80084131 L27.3243737,9.81561077 L27.3243737,14.1065739 L24.5277326,14.1065739 C24.0724857,14.1065739 23.4252357,14.3341974 23.4252357,15.3107195 L23.4252357,17.9084072 L27.3869267,17.9084072 L26.9325486,22.3279516 Z" id="Shape"></path>
                    </g>
                </g>
            </g>
        </g>
    </g>
</svg>