<?xml version="1.0" encoding="UTF-8"?>
<svg width="16px" height="18px" viewBox="0 0 16 18" version="1.1" xmlns="http://www.w3.org/2000/svg" xmlns:xlink="http://www.w3.org/1999/xlink">
    <!-- Generator: Sketch 46.2 (44496) - http://www.bohemiancoding.com/sketch -->
    <title>Shape</title>
    <desc>Created with Sketch.</desc>
    <defs></defs>
    <g id="Page-1" stroke="none" stroke-width="1" fill="none" fill-rule="evenodd">
        <g id="Desktop" transform="translate(-315.000000, -587.000000)" fill-rule="nonzero" fill="#FFFFFF">
            <g id="Home">
                <g id="1" transform="translate(76.000000, 569.000000)">
                    <g id="btn" transform="translate(209.000000, 0.000000)">
                        <g id="download-arrow" transform="translate(24.000000, 12.000000)">
                            <g id="Capa_1">
                                <path d="M19.791,15.254 C20.235,14.81 20.934,14.81 21.378,15.254 C21.807,15.698 21.807,16.397 21.378,16.841 L14.728,23.492 C14.522,23.698 14.236,23.825 13.919,23.825 C13.602,23.825 13.316,23.698 13.109,23.492 L6.459,16.841 C6.015,16.397 6.015,15.698 6.459,15.254 C6.903,14.81 7.602,14.81 8.046,15.254 L12.792,20.016 L12.792,7.111 C12.791,6.492 13.299,6 13.918,6 C14.537,6 15.029,6.492 15.029,7.111 L15.029,20.015 L19.791,15.254 Z" id="Shape"></path>
                            </g>
                        </g>
                    </g>
                </g>
            </g>
        </g>
    </g>
</svg>