<?xml version="1.0" encoding="UTF-8"?>
<svg width="66px" height="50px" viewBox="0 0 66 50" version="1.1" xmlns="http://www.w3.org/2000/svg" xmlns:xlink="http://www.w3.org/1999/xlink">
    <!-- Generator: Sketch 46.2 (44496) - http://www.bohemiancoding.com/sketch -->
    <title>Group 4</title>
    <desc>Created with Sketch.</desc>
    <defs>
        <linearGradient x1="4.22562093%" y1="0%" x2="95.5873371%" y2="100%" id="linearGradient-1">
            <stop stop-color="#FC6036" offset="0%"></stop>
            <stop stop-color="#FF2D55" offset="100%"></stop>
        </linearGradient>
    </defs>
    <g id="Page-1" stroke="none" stroke-width="1" fill="none" fill-rule="evenodd">
        <g id="Desktop" transform="translate(-795.000000, -1631.000000)" fill-rule="nonzero" fill="url(#linearGradient-1)">
            <g id="About" transform="translate(0.000000, 800.000000)">
                <g id="solutions" transform="translate(22.000000, 806.000000)">
                    <g id="ic" transform="translate(756.000000, 0.000000)">
                        <g id="Group-4" transform="translate(17.000000, 25.000000)">
                            <path d="M60.4829487,0.0415384615 L7.89935897,0.0415384615 C7.30987179,0.0415384615 6.83192308,0.519487179 6.83192308,1.10897436 C6.83192308,1.69846154 7.30987179,2.17641026 7.89935897,2.17641026 L60.4826923,2.17641026 C62.1498718,2.17641026 63.5060256,3.53282051 63.5060256,5.19974359 L63.5060256,44.8003846 C63.5060256,46.4675641 62.1496154,47.8237179 60.4826923,47.8237179 L16.7005128,47.8237179 C16.1110256,47.8237179 15.6330769,48.3016667 15.6330769,48.8911538 C15.6330769,49.480641 16.1110256,49.9585897 16.7005128,49.9585897 L60.4826923,49.9585897 C63.3270513,49.9585897 65.6408974,47.6447436 65.6410256,44.8003846 L65.6410256,5.19974359 C65.6411538,2.35538462 63.3271795,0.0415384615 60.4829487,0.0415384615 Z" id="Shape"></path>
                            <path d="M22.4308974,47.8238462 L5.15820513,47.8238462 C3.49102564,47.8238462 2.13487179,46.4674359 2.13487179,44.8005128 L2.13487179,5.19974359 C2.13487179,3.53269231 3.49102564,2.17653846 5.15820513,2.17653846 L13.6296154,2.17653846 C14.2191026,2.17653846 14.6970513,1.69858974 14.6970513,1.10910256 C14.6970513,0.519615385 14.2191026,0.0416666667 13.6296154,0.0416666667 L5.15820513,0.0416666667 C2.31384615,0.0416666667 0,2.35551282 0,5.19974359 L0,44.8005128 C0,47.6447436 2.31384615,49.9585897 5.15820513,49.9585897 L22.4307692,49.9585897 C23.0202564,49.9585897 23.4982051,49.480641 23.4982051,48.8911538 C23.4982051,48.3016667 23.0203846,47.8238462 22.4308974,47.8238462 Z" id="Shape"></path>
                            <path d="M58.4787179,13.8047436 L7.16230769,13.8047436 C6.57282051,13.8047436 6.09487179,14.2826923 6.09487179,14.8721795 L6.09487179,42.6321795 C6.09487179,43.2216667 6.57282051,43.6996154 7.16230769,43.6996154 L45.1441026,43.6996154 C45.7335897,43.6996154 46.2115385,43.2216667 46.2115385,42.6321795 C46.2115385,42.0426923 45.7335897,41.5647436 45.1441026,41.5647436 L8.22974359,41.5647436 L8.22974359,15.9396154 L57.4112821,15.9396154 L57.4112821,41.5647436 L45.4138462,41.5647436 C44.824359,41.5647436 44.3464103,42.0426923 44.3464103,42.6321795 C44.3464103,43.2216667 44.824359,43.6996154 45.4138462,43.6996154 L58.4787179,43.6996154 C59.0682051,43.6996154 59.5461538,43.2216667 59.5461538,42.6321795 L59.5461538,14.8721795 C59.5461538,14.2826923 59.0682051,13.8047436 58.4787179,13.8047436 Z" id="Shape"></path>
                            <circle id="Oval" cx="56.1155128" cy="7.99038462" r="2.36371795"></circle>
                            <circle id="Oval" cx="48.9965385" cy="7.99038462" r="2.36371795"></circle>
                            <circle id="Oval" cx="41.8788462" cy="7.99038462" r="2.36371795"></circle>
                        </g>
                    </g>
                </g>
            </g>
        </g>
    </g>
</svg>